<?xml version="1.0" encoding="utf-8"?>
<!-- Generator: Adobe Illustrator 25.0.1, SVG Export Plug-In . SVG Version: 6.00 Build 0)  -->
<svg version="1.1" id="Layer_1" xmlns="http://www.w3.org/2000/svg" xmlns:xlink="http://www.w3.org/1999/xlink" x="0px" y="0px"
	 viewBox="0 0 430 430" style="enable-background:new 0 0 430 430;" xml:space="preserve">
<style type="text/css">
	.st0{fill:#08a88a;}
	.st1{fill:#121331;}
</style>
<g>
	<path class="st0" d="M222.68,287.72c-3.31,0-6-2.69-6-6v-21.91c0-3.31,2.69-6,6-6s6,2.69,6,6v21.91
		C228.68,285.03,226,287.72,222.68,287.72z"/>
	<path class="st0" d="M197.72,287.72c-3.31,0-6-2.69-6-6v-21.91c0-3.31,2.69-6,6-6s6,2.69,6,6v21.91
		C203.72,285.03,201.03,287.72,197.72,287.72z"/>
	<path class="st0" d="M222.68,176.14c-3.31,0-6-2.69-6-6v-21.86c0-3.31,2.69-6,6-6s6,2.69,6,6v21.86
		C228.68,173.46,226,176.14,222.68,176.14z"/>
	<path class="st0" d="M197.72,176.14c-3.31,0-6-2.69-6-6v-21.86c0-3.31,2.69-6,6-6s6,2.69,6,6v21.86
		C203.72,173.46,201.03,176.14,197.72,176.14z"/>
	<g>
		<g>
			<path class="st0" d="M225.2,219.36h-27.48c-3.31,0-6-2.69-6-6s2.69-6,6-6h27.48c4.89,0,9.5-1.72,12.98-4.86
				c3.29-2.98,5.11-6.87,5.11-10.94c0-3.73-1.55-7.3-4.38-10.05c-3.71-3.61-9.1-5.52-15.18-5.36c-0.05,0-0.1,0-0.15,0h-25.86
				c-3.31,0-6-2.69-6-6s2.69-6,6-6h25.79c9.31-0.2,17.76,2.9,23.78,8.77c5.16,5.03,8,11.65,8,18.65c0,7.5-3.22,14.55-9.07,19.84
				C240.52,216.54,233.06,219.36,225.2,219.36z"/>
			<path class="st0" d="M227.04,265.81h-29.32c-3.31,0-6-2.69-6-6s2.69-6,6-6h29.32c5.31,0,10.31-1.88,14.08-5.29
				c3.59-3.25,5.57-7.5,5.57-11.94c0-9.5-8.82-17.22-19.65-17.22h-29.32c-3.31,0-6-2.69-6-6s2.69-6,6-6h29.32
				c17.45,0,31.65,13.11,31.65,29.22c0,7.87-3.38,15.27-9.52,20.84C243.18,262.83,235.32,265.81,227.04,265.81z"/>
		</g>
		<path class="st0" d="M197.72,265.81c-3.31,0-6-2.69-6-6v-89.66c0-3.31,2.69-6,6-6s6,2.69,6,6v89.66
			C203.72,263.12,201.03,265.81,197.72,265.81z"/>
	</g>
	<path class="st0" d="M197.72,176.14h-20.41c-3.31,0-6-2.69-6-6s2.69-6,6-6h20.41c3.31,0,6,2.69,6,6S201.03,176.14,197.72,176.14z"
		/>
	<path class="st0" d="M197.72,265.81h-20.41c-3.31,0-6-2.69-6-6s2.69-6,6-6h20.41c3.31,0,6,2.69,6,6S201.03,265.81,197.72,265.81z"
		/>
</g>
<path class="st1" d="M215,381.12c-91.6,0-166.12-74.52-166.12-166.12S123.4,48.88,215,48.88S381.12,123.4,381.12,215
	S306.6,381.12,215,381.12z M215,60.88c-84.98,0-154.12,69.14-154.12,154.12S130.02,369.12,215,369.12S369.12,299.98,369.12,215
	S299.98,60.88,215,60.88z"/>
<path class="st0" d="M215,341.09c-69.53,0-126.09-56.56-126.09-126.09c0-69.53,56.56-126.09,126.09-126.09
	c69.53,0,126.09,56.56,126.09,126.09C341.09,284.53,284.53,341.09,215,341.09z M215,100.91c-62.91,0-114.09,51.18-114.09,114.09
	S152.09,329.09,215,329.09S329.09,277.91,329.09,215S277.91,100.91,215,100.91z"/>
</svg>
